<?xml version="1.0" encoding="utf-8"?>
<!-- Generator: Adobe Illustrator 18.1.1, SVG Export Plug-In . SVG Version: 6.00 Build 0)  -->
<svg version="1.1" id="Layer_1" xmlns="http://www.w3.org/2000/svg" xmlns:xlink="http://www.w3.org/1999/xlink" x="0px" y="0px"
	 viewBox="0 0 300 300" enable-background="new 0 0 300 300" xml:space="preserve">
<path fill="#4F4F4F" d="M174.7,271.1c-8.5-21.5-11.3-65.4-10.2-79.3c0.1-1.3-0.7-2.6-2-3c-9.1-2.9-21.6-2.7-27.2-9.4
	c-1.7-5.1-1.9-16.3-0.5-22.3c0.4-1.7,2.1-2.7,3.8-2.2c8.5,2.2,29.9,7.1,37.8,10.2c1,0.4,1.7,1.4,1.7,2.5c-0.2,6.7-1.3,24.7-3.7,31.5
	c-0.4,1.2-0.3,2.6,0.5,3.6c3.4,4.4,10.8,8.6,12.9,8.6c1.3,0,5.4-5.5,8.3-10.2c0.5-0.9,0.6-1.9,0.3-2.9c-2.5-7-3.1-25.2-2.7-32
	c0.1-0.9,0.5-1.7,1.2-2.2c5.2-3.8,10.8-6.9,17.8-10.3c1.5-0.7,3.3,0,3.8,1.5c1.9,5.5,1.8,15.1,0,20.9c-3.2,2.5-5.1,5.1-12,7.8
	c-1.3,0.5-2.1,1.9-1.9,3.3c1.9,13.6-0.8,62.3-5.4,83.8c4.6-0.8,27.7-54.6,27.7-63.1c0-0.8,0-1.1,0-2.8l-4.7,7c0,0,4.6-15,4.7-15.1
	c0.1-17.5-0.6-52.3-2.5-71.8l-36.7-15.9c0,0-64.7,30.2-79.7,25.3c8.6,1.7,79.4-29.7,79.4-29.7l37.2,17.8c-0.3-2.4-0.7-4.3-1.2-5.7
	c-0.9-2.8-13.5-31.3-27.7-35c-3.8-1-9.8-5-20.9-7.9c-0.1,1.4-1.3,9.6-2.1,13.3c-2.6-0.3-28.4-23.3-31.7-22
	c-4.9-0.1-27.7,17.8-33,22.7c-41,37.2-11.8,77.9-19.9,121.7c0.3,0.2,12.5,10.7,12.5,10.7s-12.8-6.4-13.2-6.4c-0.5,2-1.8,6.6-2.5,8.7
	C82.6,222.8,142.9,255.7,174.7,271.1z"/>
<path fill="#4F4F4F" d="M178.8,35.6c-7.5,22.7-10,44.4-10.5,47.1c-2.3-1.7-23.5-20.1-29.3-20.4c-6.2,0.1-17.9,9.5-20.4,12.2
	c-1.4-31.4,10.3-38.7,17.6-44.8C145.4,21.9,170.3,27.2,178.8,35.6z"/>
<path fill="#4F4F4F" d="M185.2,104.9"/>
<path fill="#4F4F4F" d="M185.5,109.2"/>
</svg>
